<?xml version="1.0" encoding="utf-8"?>
<svg version="1.1" xmlns="http://www.w3.org/2000/svg" xmlns:xlink="http://www.w3.org/1999/xlink" x="0px" y="0px"
	 viewBox="0 0 24 24" style="enable-background:new 0 0 24 24;" xml:space="preserve">
<path class="circle" d="M22.1,7.7c-0.6-1.4-1.4-2.5-2.3-3.5c-1-1-2.2-1.8-3.5-2.3C14.9,1.3,13.5,1,12,1S9.1,1.3,7.7,1.9
    C6.4,2.5,5.2,3.2,4.2,4.2c-1,1-1.8,2.2-2.3,3.5C1.3,9.1,1,10.5,1,12c0,1.5,0.3,2.9,0.9,4.3c0.6,1.4,1.4,2.5,2.3,3.5
    c1,1,2.2,1.8,3.5,2.3C9.1,22.7,10.5,23,12,23s2.9-0.3,4.3-0.9c1.4-0.6,2.5-1.4,3.5-2.3c1-1,1.8-2.2,2.3-3.5
    c0.6-1.4,0.9-2.8,0.9-4.3C23,10.5,22.7,9.1,22.1,7.7z M20.3,15.5c-0.5,1.1-1.1,2.1-1.9,2.9s-1.8,1.4-2.9,1.9
    C14.4,20.8,13.2,21,12,21s-2.4-0.2-3.5-0.7c-1.1-0.5-2.1-1.1-2.9-1.9s-1.4-1.8-1.9-2.9C3.2,14.4,3,13.2,3,12
    c0-1.2,0.2-2.4,0.7-3.5c0.5-1.1,1.1-2.1,1.9-2.9s1.8-1.4,2.9-1.9C9.6,3.2,10.8,3,12,3s2.4,0.2,3.5,0.7c1.1,0.5,2.1,1.1,2.9,1.9
    s1.4,1.8,1.9,2.9C20.8,9.6,21,10.8,21,12C21,13.2,20.8,14.4,20.3,15.5z"/>
<path class="cross" d="M14.8,8.2c0.3,0,0.5,0.1,0.7,0.3c0.2,0.2,0.3,0.4,0.3,0.7s-0.1,0.5-0.3,0.7L13.4,12l2.1,2.1
    c0.2,0.2,0.3,0.4,0.3,0.7c0,0.3-0.1,0.5-0.3,0.7s-0.4,0.3-0.7,0.3c-0.3,0-0.5-0.1-0.7-0.3L12,13.4l-2.1,2.1
    c-0.2,0.2-0.4,0.3-0.7,0.3c-0.3,0-0.5-0.1-0.7-0.3s-0.3-0.4-0.3-0.7c0-0.3,0.1-0.5,0.3-0.7l2.1-2.1L8.5,9.9
    C8.3,9.7,8.2,9.4,8.2,9.2c0-0.3,0.1-0.5,0.3-0.7s0.4-0.3,0.7-0.3s0.5,0.1,0.7,0.3l2.1,2.1l2.1-2.1C14.3,8.3,14.6,8.2,14.8,8.2z"/>
</svg>
