<?xml version="1.0" encoding="utf-8"?>
<svg version="1.1" id="Layer_1" xmlns="http://www.w3.org/2000/svg" xmlns:xlink="http://www.w3.org/1999/xlink" x="0px" y="0px"
	 viewBox="0 0 24 24" style="enable-background:new 0 0 24 24;" xml:space="preserve">
<style type="text/css">
	.st0{fill:#ffffff;}
</style>
<path class="st0" d="M12,2c0.3,0,0.5,0.1,0.7,0.3l7,7C19.9,9.5,20,9.7,20,10c0,0.3-0.1,0.5-0.3,0.7S19.3,11,19,11
	c-0.3,0-0.5-0.1-0.7-0.3L13,5.4V21c0,0.3-0.1,0.5-0.3,0.7S12.3,22,12,22s-0.5-0.1-0.7-0.3S11,21.3,11,21V5.4l-5.3,5.3
	C5.5,10.9,5.3,11,5,11c-0.3,0-0.5-0.1-0.7-0.3C4.1,10.5,4,10.3,4,10c0-0.3,0.1-0.5,0.3-0.7l7-7C11.5,2.1,11.7,2,12,2z"/>
</svg>
